<svg xmlns="http://www.w3.org/2000/svg" viewBox="0 0 27 27"><path d="M1 1h7v7h-7zM10 1h2v1h-2zM13 1h1v1h-1zM19 1h7v7h-7zM2 2v5h5v-5zM16 2h1v1h1v1h-2zM20 2v5h5v-5zM3 3h3v3h-3zM9 3h1v1h1v1h1v3h-1v-2h-1v3h-1zM13 3h1v1h-1zM21 3h3v3h-3zM14 4h2v2h-1v-1h-1zM13 6h2v1h-1v2h1v-2h1v1h1v1h1v1h-5v-1h-1v-1h1zM16 6h2v2h-1v-1h-1zM1 9h1v1h-1zM3 9h5v1h-1v1h-1v-1h-1v1h-1v2h-2v1h2v-1h1v2h3v1h-1v1h-1v1h-1v-1h-1v-1h-1v-1h-1v3h-1v-7h1v1h1v-1h-1v-1h1zM11 9h1v1h-1zM19 9h5v1h-1v1h-1v-1h-3zM8 10h2v1h-1v1h-2v-1h1zM12 10h1v1h1v1h-2v1h-1v1h-1v1h1v-1h1v3h-1v-1h-1v1h-2v-1h1v-4h1v-1h2zM5 11h1v1h-1zM15 11h2v1h-1v2h-2v-1h1zM18 11h1v1h-1zM20 11h1v1h-1zM24 11h2v3h-2v1h2v1h-1v1h-1v-1h-2v-1h1v-1h-4v-2h1v1h4zM6 12h1v1h1v1h-2zM17 13h1v1h-1zM13 14h1v1h-1zM16 15h2v2h1v-2h1v2h4v1h-1v1h-1v2h2v1h-2v1h-1v-1h-1v1h-1v1h-1v1h-2v-1h1v-2h-1v-1h1v-3h-1v2h-1v-2h-2v-2h1v1h1v-1h1v1h1v-1h-1zM3 17h1v1h-1zM7 17h1v1h-1zM10 17h1v1h-1zM25 17h1v1h-1zM9 18h1v1h-1zM11 18h1v1h-1zM18 18v3h3v-3zM24 18h1v1h1v2h-1v-1h-2v-1h1zM1 19h7v7h-7zM10 19h1v1h1v-1h2v1h-1v1h2v1h1v1h-1v1h-1v-1h-1v-1h-1v-1h-2v1h2v2h2v1h-3v-2h-1v1h-1v-4h1zM19 19h1v1h-1zM2 20v5h5v-5zM3 21h3v3h-3zM24 22h2v4h-3v-1h2v-2h-1zM19 24h1v1h-1zM21 24h2v1h-1v1h-1zM9 25h1v1h-1zM14 25h1v1h-1z"/></svg>