<svg xmlns="http://www.w3.org/2000/svg" viewBox="0 0 27 27"><path d="M1 1h7v7h-7zM10 1h1v1h-1zM12 1h1v1h-1zM15 1h3v1h-1v1h-1v-1h-1zM19 1h7v7h-7zM2 2v5h5v-5zM9 2h1v1h-1zM11 2h1v1h-1zM13 2h2v1h-1v1h-1v2h1v2h-1v-1h-1v-1h-1v-1h-1v-2h1v1h1v-1h1zM20 2v5h5v-5zM3 3h3v3h-3zM15 3h1v2h-1zM21 3h3v3h-3zM9 5h1v1h-1zM16 5h2v1h-1v1h-1zM9 7h1v1h-1zM11 7h1v1h1v1h-2zM15 7h1v2h-1v2h-2v-2h1v-1h1zM17 7h1v1h-1zM1 9h1v1h-1zM3 9h1v1h-1zM5 9h1v1h-1zM7 9h1v1h-1zM10 9h1v1h-1zM21 9h1v1h-1zM24 9h1v1h1v2h-5v3h-1v1h-1v-1h-1v-1h1v-1h1v-2h-1v2h-1v-1h-1v-1h1v-1h3v1h1v-1h1v1h1zM4 10h1v1h1v-1h1v1h1v1h-2v1h-1v-1h-2v-1h1zM8 10h1v1h-1zM9 11h2v3h-1v-2h-1zM12 11h1v1h-1zM2 12h1v1h-1zM8 12h1v2h1v1h-1v1h-2v-1h1v-1h-1v-1h1zM13 12h3v1h-1v2h-1v-2h-1zM1 13h1v1h-1zM3 13h2v1h1v1h-1v1h-1v-2h-1zM16 13h1v1h-1zM24 13h2v7h-1v1h-1v-2h1v-3h-1v-1h-1v-1h1zM12 14h1v1h-1zM1 15h1v1h-1zM15 15h1v2h-1v1h1v1h-2v1h1v1h1v2h1v1h1v-1h1v2h-1v1h-4v-3h1v-1h-2v1h-1v-1h-1v-1h-1v-1h2v1h1v-1h-1v-2h1v-1h1v-1h1zM21 15h1v1h-1zM2 16h2v1h-2zM5 16h2v1h-1v1h-1zM9 16h4v1h-2v2h-2v-1h1v-1h-1zM17 16h2v1h1v-1h1v1h1v1h1v2h-1v3h2v1h-1v2h-1v-1h-2v-1h1v-1h-1v-1h-2v1h-1v-3h-1v-1h1zM1 17h1v1h-1zM7 17h2v1h-2zM18 18v3h3v-3zM1 19h7v7h-7zM19 19h1v1h-1zM2 20v5h5v-5zM3 21h3v3h-3zM9 21h1v1h-1zM10 22h1v1h1v1h-3v-1h1zM25 23h1v1h-1zM12 24h1v1h-1zM15 24v1h1v-1zM24 24h1v1h1v1h-2zM9 25h3v1h-3z"/></svg>