<svg xmlns="http://www.w3.org/2000/svg" viewBox="0 0 27 27"><path d="M1 1h7v7h-7zM9 1h2v1h2v1h1v1h-2v-1h-2v-1h-1zM14 1h3v1h-1v1h-2zM19 1h7v7h-7zM2 2v5h5v-5zM20 2v5h5v-5zM3 3h3v3h-3zM16 3h1v1h-1zM21 3h3v3h-3zM9 4h3v1h-1v2h-1v2h2v-1h1v3h-1v2h-1v-2h-2v-1h-2v-1h2zM14 4h2v1h-1v1h-1v2h-1v-2h-1v-1h2zM17 4h1v1h-1zM16 5h1v1h-1zM15 6h1v3h-1zM11 7h1v1h-1zM17 7h1v2h5v1h-1v1h-1v1h-2v-1h1v-1h-3zM1 9h1v1h2v1h-3zM5 9h1v1h-1zM25 9h1v1h-1zM14 10h3v1h1v1h1v1h-1v1h-1v2h-1v-1h-2v1h-1v1h-2v1h-1v2h-1v-6h-4v1h-1v2h-1v-3h1v-1h-1v1h-1v-1h-1v-1h3v-1h5v1h1v2h2v1h-1v1h1v-1h1v-1h3v-1h1v-1h-1v1h-1v-2h-1zM23 11h1v2h2v1h-2v1h-1v1h-1v-1h-2v-1h3zM7 12v1h1v-1zM12 13h1v1h-1zM19 13h1v1h-1zM1 14h1v1h-1zM5 15h1v1h-1zM7 15h1v1h-1zM18 15h1v2h3v5h-1v1h-1v1h-1v-1h-3v-1h1v-3h-1v-1h1v-1h1zM15 16h1v1h-1zM23 16h1v2h-1zM25 16h1v2h-1zM1 17h2v1h-2zM4 17h4v1h-4zM13 17h1v1h-1zM14 18h1v1h-1zM18 18v3h3v-3zM24 18h1v1h-1zM1 19h7v7h-7zM15 19h1v1h-1zM19 19h1v1h-1zM2 20v5h5v-5zM11 20h1v1h1v-1h1v3h1v1h-1v1h-2v1h-1v-2h-1v-2h-1v-1h2zM23 20h2v1h-1v1h-1zM3 21h3v3h-3zM15 21h1v1h-1zM12 22v1h1v-1zM22 22h1v1h-1zM24 22h2v1h-1v2h1v1h-4v-1h-1v-1h2v-1h1zM16 24h1v2h-2v-1h1zM18 24h1v1h-1zM9 25h1v1h-1zM20 25h1v1h-1z"/></svg>