<svg xmlns="http://www.w3.org/2000/svg" viewBox="0 0 27 27"><path d="M1 1h7v7h-7zM9 1h1v1h-1zM11 1h1v1h-1zM14 1h2v1h-2zM17 1h1v1h-1zM19 1h7v7h-7zM2 2v5h5v-5zM10 2h1v3h2v1h-3v-2h-1v-1h1zM12 2h2v1h-2zM20 2v5h5v-5zM3 3h3v3h-3zM14 3h3v2h-2v2h-1v-2h-1v-1h1zM21 3h3v3h-3zM17 5h1v3h-1zM9 6h1v2h-1zM11 7h1v1h1v1h-2zM13 7h1v1h-1zM15 7h1v1h1v3h1v1h-1v1h-2v-1h1v-3h-1zM1 9h1v1h-1zM3 9h1v2h1v1h1v1h-2v1h-1v-2h-1v-2h1zM7 9h2v1h-2zM13 9h1v1h-1zM20 9h1v1h-1zM23 9h1v1h-1zM25 9h1v3h-1zM5 10h1v1h-1zM9 10h1v1h-1zM12 10h1v2h-1v1h-1v-1h-1v-1h2zM19 10h1v1h-1zM7 11h1v1h-1zM14 11h1v1h-1zM21 11h1v1h-1zM23 11h1v1h-1zM1 12h1v2h-1zM9 12h1v1h-1zM13 12h1v1h-1zM22 12h1v2h1v1h-1v3h-1v2h1v3h-1v2h-1v-1h-1v-1h1v-1h-2v1h-3v1h-1v-1h-1v-1h1v-1h1v-1h1v-1h-2v-1h1v-1h-1v-1h-1v-1h2v-1h1v2h1v1h4v-1h-4v-1h1v-1h-1v-1h2v2h2zM24 12h1v1h-1zM7 13h1v1h-1zM10 13h1v3h1v1h2v2h1v1h-1v2h-1v-1h-1v-1h1v-2h-2v-1h-1v-1h-1v-1h1zM12 13h1v1h-1zM25 13h1v7h-1v-1h-1v-3h1zM4 14h1v1h-1zM1 15h3v1h-3zM5 15h1v1h-1zM7 15h1v1h-1zM12 15h1v1h-1zM4 16h1v1h3v1h-4zM8 16h1v1h-1zM1 17h2v1h-2zM9 18h2v2h-2zM18 18v3h3v-3zM1 19h7v7h-7zM19 19h1v1h-1zM2 20v5h5v-5zM3 21h3v3h-3zM11 21h1v1h-1zM24 21h1v2h1v1h-3v-1h1zM10 22h1v1h3v1h-1v2h-4v-1h1v-1h-1v-1h1zM17 24h1v1h1v1h-2zM15 25h1v1h-1zM20 25h1v1h-1zM25 25h1v1h-1z"/></svg>