<svg xmlns="http://www.w3.org/2000/svg" viewBox="0 0 27 27"><path d="M1 1h7v7h-7zM19 1h7v7h-7zM2 2v5h5v-5zM10 2h4v2h2v2h-1v-1h-1v1h-1v-3h-1v1h-1v1h-1v3h1v1h-2v-6h1zM16 2h1v1h1v1h-2zM20 2v5h5v-5zM3 3h3v3h-3zM21 3h3v3h-3zM11 6h1v2h-1zM14 6h1v1h-1zM16 6h1v1h-1zM13 7h1v1h-1zM15 7h1v2h1v-2h1v3h-4v3h-1v-2h-1v-1h-1v-1h1v-1h1v1h2zM1 9h1v1h-1zM3 9h5v1h-5zM19 9h5v1h-1v1h-1v-1h-3zM2 10h1v1h1v1h-2zM10 10h1v1h1v1h-3v-1h1zM6 11h2v1h-1v1h2v1h-2v1h-1v-1h-1v1h1v2h-1v-1h-1v-4h2zM15 11h2v1h-1v2h-2v-1h1zM18 11h1v1h-1zM20 11h1v1h-1zM24 11h2v3h-2v1h2v1h-1v1h-1v-1h-2v-1h1v-1h-4v-2h1v1h4zM1 12h1v2h1v1h-1v3h-1zM10 13h2v3h-2v-1h1v-1h-1zM17 13h1v1h-1zM9 14h1v1h-1zM13 14h1v1h-1zM7 15h2v2h-1v-1h-1zM16 15h2v2h1v-2h1v2h4v1h-1v1h-1v2h2v1h-2v1h-1v-1h-1v1h-1v1h-1v1h-2v-1h1v-2h-1v-1h1v-3h-1v2h-1v-2h-2v-2h1v1h1v-1h1v1h1v-1h-1zM4 17h1v1h-1zM7 17h1v1h-1zM25 17h1v1h-1zM9 18h1v1h-1zM11 18h1v1h-1zM18 18v3h3v-3zM24 18h1v1h1v2h-1v-1h-2v-1h1zM1 19h7v7h-7zM10 19h1v1h-1zM12 19h2v1h-1v1h2v1h1v1h-1v1h-2v-2h-1v-1h-1v-1h1zM19 19h1v1h-1zM2 20v5h5v-5zM9 20h1v2h1v1h-1v1h-1zM3 21h3v3h-3zM24 22h2v4h-3v-1h2v-2h-1zM11 23h1v1h-1zM19 24h1v1h-1zM21 24h2v1h-1v1h-1zM9 25h1v1h-1zM14 25h1v1h-1z"/></svg>