<svg xmlns="http://www.w3.org/2000/svg" viewBox="0 0 27 27"><path d="M1 1h7v7h-7zM9 1h8v1h-1v1h-2v-1h-2v1h-1v-1h-2zM19 1h7v7h-7zM2 2v5h5v-5zM20 2v5h5v-5zM3 3h3v3h-3zM10 3h1v1h-1zM13 3h1v1h-1zM16 3h1v1h-1zM21 3h3v3h-3zM9 4h1v2h1v1h-1v3h-1v1h-1v-1h-1v-1h2zM11 4h1v1h-1zM14 4h2v1h-1v1h-2v1h-1v-2h2zM17 4h1v1h-1zM16 5h1v1h-1zM15 6h1v3h-1zM11 7h1v2h-1zM13 7h1v1h-1zM17 7h1v1h-1zM1 9h1v1h-1zM5 9h1v1h1v1h-2zM12 9h2v1h-2zM17 9h6v1h-1v1h-1v1h-2v-1h1v-1h-3zM25 9h1v1h-1zM10 10h1v1h-1zM14 10h3v1h1v1h1v1h-1v1h-1v2h-1v-1h-2v1h-1v1h-3v-1h-1v-1h1v-1h1v2h1v-1h1v-1h3v-1h1v-1h-1v1h-1v-2h-1zM1 11h4v1h-1v1h-2v1h1v1h-2zM7 11h1v1h-1zM12 11h1v1h-1zM23 11h1v2h2v1h-2v1h-1v1h-1v-1h-2v-1h3zM8 12h4v1h1v1h-2v-1h-3zM13 12h1v1h-1zM5 13h3v1h-1v1h-1v1h-2v-1h1zM19 13h1v1h-1zM8 14h1v1h-1zM7 15h1v1h-1zM18 15h1v2h3v5h-1v1h-1v1h-1v-1h-3v-1h1v-3h-1v-1h1v-1h1zM8 16h1v1h-1zM15 16h1v1h-1zM23 16h1v2h-1zM25 16h1v2h-1zM1 17h4v1h-4zM6 17h2v1h-2zM13 17h1v1h-1zM9 18h1v1h1v-1h1v3h-1v-1h-2zM14 18h1v1h-1zM18 18v3h3v-3zM24 18h1v1h-1zM1 19h7v7h-7zM15 19h1v1h-1zM19 19h1v1h-1zM2 20v5h5v-5zM13 20h1v3h-1v-1h-1v-1h1zM23 20h2v1h-1v1h-1zM3 21h3v3h-3zM9 21h2v1h1v1h1v1h-2v-1h-1v-1h-1zM15 21h1v1h-1zM22 22h1v1h-1zM24 22h2v1h-1v2h1v1h-4v-1h-1v-1h2v-1h1zM14 23h1v1h-1zM10 24h1v1h1v1h-3v-1h1zM13 24h1v1h-1zM16 24h1v2h-2v-1h1zM18 24h1v1h-1zM20 25h1v1h-1z"/></svg>